<?xml version="1.0" standalone="no"?>
<!DOCTYPE svg PUBLIC "-//W3C//DTD SVG 20010904//EN"
 "http://www.w3.org/TR/2001/REC-SVG-20010904/DTD/svg10.dtd">
<svg version="1.0" xmlns="http://www.w3.org/2000/svg"
 width="920.000000pt" height="897.000000pt" viewBox="0 0 920.000000 897.000000"
 preserveAspectRatio="xMidYMid meet">

<g transform="translate(0.000000,897.000000) scale(0.100000,-0.100000)"
fill="#000000" stroke="none">
<path d="M3895 8224 c-383 -31 -734 -106 -1067 -230 -253 -94 -608 -283 -845
-451 -227 -161 -510 -420 -680 -623 -477 -571 -759 -1224 -855 -1980 -18 -142
-18 -688 0 -830 92 -730 352 -1350 800 -1910 556 -695 1377 -1177 2257 -1325
248 -41 357 -50 645 -49 296 1 457 17 720 70 881 176 1676 680 2229 1412 35
46 61 85 59 87 -2 2 -44 -7 -93 -21 -137 -38 -306 -64 -455 -71 l-135 -6 -115
-111 c-239 -231 -508 -420 -805 -566 -157 -78 -432 -190 -465 -190 -6 0 29 33
77 74 171 143 354 348 492 551 67 98 206 334 199 339 -2 2 -39 15 -83 30 -44
15 -139 56 -211 91 l-131 63 -18 -37 c-55 -117 -219 -352 -374 -536 -139 -165
-597 -617 -642 -633 -5 -2 -9 259 -9 642 l0 646 455 2 456 3 -78 55 c-43 30
-143 119 -223 197 l-145 143 -232 0 -233 0 0 1465 0 1465 325 0 325 0 83 71
c196 170 479 327 729 405 l57 17 -46 91 c-146 291 -333 565 -556 816 -60 66
-106 120 -103 120 18 0 233 -92 351 -150 366 -179 715 -448 988 -757 32 -37
43 -43 76 -43 138 0 407 -54 591 -119 63 -22 115 -39 116 -38 4 4 -193 295
-256 377 -604 790 -1512 1305 -2510 1425 -129 16 -556 28 -665 19z m-35 -1209
l0 -665 -520 0 -519 0 35 78 c160 351 516 837 857 1170 69 67 90 82 116 82
l31 0 0 -665z m785 503 c299 -307 551 -647 721 -972 35 -67 70 -138 79 -158
l15 -38 -535 0 -535 0 0 666 0 667 52 -5 53 -6 150 -154z m-1594 -47 c-22 -26
-48 -54 -57 -62 -9 -7 -49 -52 -88 -99 -207 -245 -390 -529 -533 -827 l-64
-133 -390 0 c-368 0 -389 1 -380 18 22 40 184 234 272 326 288 303 672 574
1029 727 67 29 240 97 248 99 2 0 -14 -22 -37 -49z m-886 -1498 c-4 -10 -26
-86 -50 -169 -84 -290 -144 -617 -167 -914 l-12 -150 -499 0 -499 0 7 68 c38
372 160 793 326 1125 l29 57 436 0 c411 0 436 -1 429 -17z m1693 -610 l2 -623
-716 0 -716 0 7 78 c31 370 101 728 205 1046 l41 126 587 -2 587 -3 3 -622z
m-1920 -1088 c15 -313 99 -809 186 -1110 14 -49 26 -93 26 -97 0 -4 -200 -8
-444 -8 l-443 0 -46 103 c-155 347 -249 711 -275 1065 l-8 102 501 -2 500 -3
3 -50z m1922 -580 l0 -635 -604 0 -604 0 -5 23 c-2 12 -25 92 -50 178 -84 287
-148 657 -163 943 l-7 126 716 0 717 0 0 -635z m-1505 -1161 c212 -455 465
-788 820 -1082 48 -40 45 -39 -135 25 -253 90 -581 266 -802 430 -259 192
-506 439 -686 685 -23 31 -42 60 -42 63 0 3 177 5 393 5 l393 0 59 -126z
m1505 -504 c0 -346 -3 -630 -6 -630 -22 0 -343 307 -490 468 -242 264 -464
575 -539 755 l-15 37 525 0 525 0 0 -630z"/>
<path d="M6295 6209 c-185 -28 -351 -78 -513 -154 -223 -106 -364 -208 -539
-389 -245 -253 -395 -538 -470 -895 -24 -114 -27 -147 -27 -341 -1 -227 6
-288 51 -465 130 -507 489 -943 963 -1169 253 -120 439 -165 722 -173 251 -7
441 19 635 87 44 15 59 17 65 7 4 -6 184 -286 401 -622 446 -690 402 -637 581
-689 115 -34 230 -35 313 -5 47 18 73 37 141 108 121 126 155 178 160 251 9
125 0 143 -450 847 l-409 642 59 78 c414 544 484 1274 183 1888 -263 535 -764
901 -1356 990 -110 16 -409 19 -510 4z m510 -584 c430 -91 785 -406 923 -820
239 -718 -225 -1489 -971 -1610 -400 -65 -804 68 -1084 358 -151 156 -257 337
-307 525 -115 431 -6 872 293 1185 198 207 437 331 726 377 87 13 326 5 420
-15z"/>
</g>
</svg>
